<svg width="108" height="108" viewBox="0 0 108 108" fill="none" xmlns="http://www.w3.org/2000/svg">
<rect width="108" height="108" fill="white"/>
<g clip-path="url(#clip0)">
<path d="M74.3809 69.6657C76.619 64.1864 73.7619 61.5962 72.4286 60.1517C71.0476 58.7072 69.8095 56.4159 69.8095 54.4234C65.2857 53.6762 64.0952 49.9902 65.2381 46.8023C61.7619 49.5917 58 47.3004 56.6667 44.76C54.8571 48.9442 50.7143 49.9404 48.619 46.7525C48.0952 48.197 44.8571 50.6876 42.0476 48.3464C42.0952 50.0898 42.0952 53.5268 40.3333 53.6762C37.8095 57.3623 37.5714 61.3472 36.7143 64.6347C35.8571 67.9721 33.0952 66.5774 31.8571 70.0642C30.0476 75.7426 37 81.0725 37 81.0725C37 81.0725 44.0952 87.5479 53.4762 86.9502C64.5238 86.1034 69.4286 77.8845 69.4286 77.8845C69.4286 77.8845 72.1428 75.1449 74.3809 69.6657Z" fill="white"/>
<path d="M93.335 56.4641C94.5255 55.2188 94.5255 52.2799 92.1445 51.8814C96.5255 45.0573 90.2874 37.735 86.8112 38.7312C87.5731 36.9878 86.8112 34.1486 83.1922 34.2482C84.0493 29.5659 78.9065 25.0829 75.0017 27.6233C74.716 24.7841 71.5731 22.3433 68.4779 25.581C67.6207 18.7569 61.9541 20.5003 59.2398 24.3358C57.6207 19.3048 52.6684 20.849 51.0017 24.7841C47.8112 21.8452 43.6208 22.0444 40.7636 27.5237C39.2874 25.0829 34.6208 25.9795 35.1446 30.6618C31.5255 28.1214 25.9065 31.9071 27.1446 36.4399C24.8112 35.3441 19.8589 37.7848 20.8112 42.1184C18.3827 41.5207 15.9541 43.8618 17.5255 47.0995C14.335 46.9999 12.0017 53.4256 16.0493 56.0656C14.7636 55.9659 14.3827 57.5101 15.4779 58.0082C9.09695 64.2844 16.6684 71.9056 20.1446 70.6105C18.3827 72.9516 21.6208 76.3886 23.7636 75.492C23.0969 79.975 28.0493 81.0709 29.5255 80.1742C29.9065 81.2701 32.6208 82.615 33.9065 80.772C35.2874 82.4158 37.0017 81.0709 37.0017 81.0709C37.0017 81.0709 30.0493 75.6912 31.8588 70.0625C33.0969 66.5758 35.8588 67.9705 36.716 64.6331C37.5731 61.2958 37.8588 57.3607 40.3827 53.6248C42.1446 53.4754 42.0969 50.0384 42.0969 48.295C44.9065 50.6361 48.0969 48.1456 48.6684 46.701C50.7636 49.889 54.9065 48.8429 56.716 44.7086C58.0493 47.249 61.8112 49.5403 65.2874 46.7508C64.1446 49.9886 65.335 53.6248 69.8588 54.372C69.8588 56.3644 71.0969 58.6558 72.4779 60.1003C73.8588 61.5448 76.716 64.135 74.4303 69.6142C72.1922 75.0935 69.4779 77.8331 69.4779 77.8331C69.4779 77.8331 69.3826 80.5727 71.6684 80.1742C73.9065 79.7758 73.7636 77.8331 73.7636 77.8331C73.7636 77.8331 75.9541 79.2776 77.9065 78.5803C79.8588 77.8829 80.4303 75.741 80.4303 75.741C82.4779 76.538 85.0969 75.2429 84.6207 72.8022C90.5731 73.6988 93.8588 67.4226 91.9065 64.7825C95.0969 64.2844 96.2398 57.8588 93.335 56.4641Z" fill="#FF7800"/>
<g opacity="0.5">
<path opacity="0.5" d="M72.4286 60.1517C71.0476 58.7072 69.8095 56.4159 69.8095 54.4234C65.2857 53.6762 64.0952 49.9902 65.2381 46.8023C61.7619 49.5917 58 47.3004 56.6667 44.76C54.8571 48.9442 50.7143 49.9404 48.619 46.7525C48.0952 48.197 44.8571 50.6876 42.0476 48.3464C42.0952 50.0898 42.0952 53.5268 40.3333 53.6762C37.8095 57.3623 37.5714 61.3472 36.7143 64.6347C35.8571 67.9721 33.0952 66.5774 31.8571 70.0642C30.0476 75.7426 37 81.0725 37 81.0725C37 81.0725 44.0952 87.5479 53.4762 86.9502C64.5238 86.1034 69.4286 77.8845 69.4286 77.8845C69.4286 77.8845 72.1428 75.1449 74.3809 69.6657C76.6667 64.1864 73.8095 61.5464 72.4286 60.1517ZM72 70.9608C68.8095 77.0377 65 79.6279 66.4762 76.7389C67.9524 73.8498 69.2381 69.2672 67.0476 67.5736C64.8571 65.88 62.9524 66.9759 59.9048 71.0604C53.9524 76.8385 46.5238 73.9494 43.1429 71.0604C39.8095 68.1713 35.7143 71.8076 37.9048 75.9419C40.0952 80.0762 40.5238 82.0189 37.4762 79.4287C31.3809 73.2023 34.2857 69.5162 36.9048 67.5238C39.5238 65.5313 38.3809 57.163 41 54.8717C43.619 52.5804 43.4762 50.4385 43.4762 50.4385C43.4762 50.4385 48.2857 50.7374 48.8571 48.5955C50 51.3351 55.1429 49.791 56.8571 47.0513C57.5714 48.8943 61.6667 49.791 63.7143 49.0438C63.5714 51.1857 64.7143 53.6264 67.1905 54.6725C69.6667 55.7185 68.6667 59.554 71.2857 61.5464C73.8571 63.6385 75.1905 64.834 72 70.9608Z" fill="#D1D1CF"/>
</g>
<path d="M42.1905 71.5584C42.1905 71.5584 42.4762 69.3169 42.6666 67.972C42.8095 66.6271 42.3809 66.5773 41.5238 66.5773C40.6666 66.5773 38.3333 64.9833 39.9047 60.7494C41.4762 56.5652 44.7619 55.3199 46.5714 56.2664C48.3809 57.2128 49.5714 62.2437 45.3809 65.7305C44.3333 66.5275 43.5714 65.9796 43.5714 66.8264C43.5714 67.6731 42.9524 71.8573 42.9524 71.8573L42.1905 71.5584Z" fill="#D1D1CF"/>
<path d="M63.9524 68.1712C63.9524 68.1712 62.8095 64.3358 62.4762 63.1901C62.1429 62.0444 61.6667 62.7916 60.5238 62.7916C59.381 62.7916 55.3333 62.3433 55.2381 57.6611C55.2381 54.7222 57.3333 52.6301 60 52.929C62.6667 53.178 64.3809 55.9675 64.4286 57.6112C64.4762 59.255 64.2381 60.7494 63.4762 61.6958C62.9524 62.3931 63.2381 63.1403 63.8571 65.3818C64.4286 67.6233 64.6667 68.0218 64.6667 68.0218L63.9524 68.1712Z" fill="#D1D1CF"/>
<path d="M41.8095 71.1599C41.8095 71.1599 42.0952 68.9184 42.2857 67.5735C42.4285 66.2286 42 66.1788 41.1428 66.1788C40.2857 66.1788 37.9523 64.5848 39.5238 60.3509C41.0952 56.1667 44.3809 54.9214 46.1904 55.8679C48 56.8143 49.1904 61.8452 45 65.332C43.9523 66.129 43.1904 65.5811 43.1904 66.4279C43.1904 67.2747 42.5714 71.4588 42.5714 71.4588L41.8095 71.1599Z" fill="#FFEC02"/>
<path d="M63.619 67.7728C63.619 67.7728 62.4761 63.9373 62.1428 62.7916C61.8095 61.646 61.3333 62.3931 60.1904 62.3931C59.0476 62.3931 55 61.9448 54.9047 57.2626C54.9047 54.3237 57 52.2316 59.6666 52.5305C62.3333 52.7795 64.0476 55.569 64.0952 57.2127C64.1428 58.8565 63.9047 60.3509 63.1428 61.2973C62.619 61.9946 62.9047 62.7418 63.5238 64.9833C64.0952 67.2248 64.3333 67.6233 64.3333 67.6233L63.619 67.7728Z" fill="#54D20F"/>
<path d="M40.5238 56.0672C40.5238 56.0672 42.5714 52.5804 45.1429 52.929C47.7619 53.2777 47.9524 57.2626 48.5714 57.3124C49.1905 57.3622 48.2857 51.634 45.2857 51.3351C43.2857 51.086 40.5238 56.0672 40.5238 56.0672Z" fill="#D1D1CF"/>
<path d="M54.8572 56.0671C54.8572 56.0671 54.9048 52.132 57.6667 49.9403C59.1905 48.8943 60.8096 49.6913 62.1905 51.3351C60.8096 48.3464 58.9524 47.3003 56.6191 49.6913C54.2857 52.0822 54.3334 56.2166 54.8572 56.0671Z" fill="#D1D1CF"/>
<path d="M40.4285 55.6189C40.4285 55.6189 42.4762 52.1321 45.0476 52.4807C47.6666 52.8294 47.8571 56.8143 48.4762 56.8641C49.0952 56.914 48.1904 51.1857 45.1904 50.8868C43.2381 50.6377 40.4285 55.6189 40.4285 55.6189Z" fill="#DB6505"/>
<path d="M54.7619 55.6188C54.7619 55.6188 54.8095 51.6837 57.5714 49.492C59.0952 48.446 60.7143 49.243 62.0952 50.8867C60.7143 47.8981 58.8571 46.852 56.5238 49.243C54.1905 51.6339 54.2857 55.7682 54.7619 55.6188Z" fill="#DB6505"/>
<path d="M45.5714 67.2249C46.8095 64.6845 49.5714 62.8913 52.1904 62.7917C56.3809 62.6423 59.9047 64.7841 59.6666 68.7192C59.4285 72.6543 55.9523 74.049 51.9047 74.0989C49.4285 74.1487 44.8095 73.2022 44.9047 69.7653C44.9523 68.9185 45.1904 68.0219 45.5714 67.2249Z" fill="#D1D1CF"/>
<path d="M45.5714 66.4777C46.8095 63.9373 49.5714 62.1441 52.1904 62.0445C56.3809 61.8951 59.9047 64.037 59.6666 67.972C59.4285 71.9071 55.9523 73.3019 51.9047 73.3517C49.4285 73.4015 44.8095 72.4551 44.9047 69.0181C44.9523 68.1215 45.1904 67.2747 45.5714 66.4777Z" fill="#FF0000"/>
<path d="M44.9524 61.2475C44.8095 62.443 44.3809 63.3894 44 63.3396C43.619 63.2898 43.4286 62.2437 43.5714 61.0482C43.7143 59.8528 44.1428 58.9064 44.5238 58.9562C44.9048 59.006 45.0952 60.0022 44.9524 61.2475Z" fill="#D1D1CF"/>
<path d="M44.7143 61.0483C44.5714 62.2437 44.1428 63.1902 43.7619 63.1404C43.3809 63.0905 43.1905 62.0445 43.3333 60.849C43.4762 59.6536 43.9047 58.7071 44.2857 58.7569C44.6667 58.8068 44.8571 59.803 44.7143 61.0483Z" fill="#292524"/>
<path d="M44.3333 59.6536C44.2381 60.0521 44.0476 60.3011 43.8572 60.2513C43.7143 60.2015 43.6191 59.8528 43.7143 59.5041C43.8095 59.1056 44 58.8566 44.1905 58.9064C44.3333 58.9562 44.381 59.3049 44.3333 59.6536Z" fill="white"/>
<path d="M61.238 58.0595C61.5238 59.255 61.4285 60.3011 61.0952 60.4007C60.7142 60.5003 60.1904 59.6037 59.9047 58.4082C59.619 57.2128 59.7142 56.1667 60.0476 56.0671C60.4285 56.0173 60.9523 56.8641 61.238 58.0595Z" fill="#D1D1CF"/>
<path d="M60.9047 58.1592C61.1904 59.3546 61.0952 60.4007 60.7619 60.5003C60.3809 60.5999 59.8571 59.7033 59.5714 58.5078C59.2857 57.3124 59.3809 56.2663 59.7143 56.1667C60.0952 56.1169 60.6666 57.0135 60.9047 58.1592Z" fill="#292524"/>
<path d="M60.0952 57.0633C60.1428 57.4618 60.0476 57.7607 59.8571 57.8105C59.6667 57.8105 59.5238 57.5614 59.4762 57.1629C59.4286 56.7645 59.5238 56.4656 59.7143 56.4158C59.8571 56.366 60.0476 56.6648 60.0952 57.0633Z" fill="white"/>
<path d="M39 72.7539C39 72.7539 40.7619 70.7615 43.6667 73.2521C46.5714 75.7426 47.5238 76.44 52.9048 75.9917C58.2857 75.4936 59.7143 73.6007 61.9048 70.4128C64.0952 67.2249 67.0476 68.769 67 71.957C66.9524 75.1449 64.0952 85.2068 53.7143 86.4023C46.8095 86.9004 42.0952 81.7698 39.3333 78.3328C37.7143 76.0913 38 73.9992 39 72.7539Z" fill="#D1D1CF"/>
<path d="M39 71.7577C39 71.7577 40.7619 69.7653 43.6667 72.2558C46.5714 74.7464 47.5238 75.4438 52.9048 74.9955C58.2857 74.4974 59.7143 72.6045 61.9048 69.4166C64.0952 66.2287 67.0476 67.7728 67 70.9608C66.9524 74.1487 64.0952 84.2106 53.7143 85.406C46.8095 85.9042 42.0952 80.7736 39.3333 77.3366C37.7143 75.0453 38 73.003 39 71.7577Z" fill="#FF7800"/>
<path d="M43.1428 74.6467C43.1428 74.6467 42.7619 76.7388 46.3809 78.3826C50 79.9766 54.5238 80.8732 58.9047 78.3826C63.2857 75.892 63.8571 73.5011 63.8571 71.8075C63.8095 70.0641 65.8571 70.5622 65.7619 71.7577C65.619 73.003 64.3809 73.5509 63.4762 74.5471C62.5238 75.5434 60.0952 78.1335 58 80.7735C55.9047 83.4135 55.4285 83.7622 52.5714 83.7124C49.7619 83.6128 49.6666 81.6701 48.619 80.6241C47.5714 79.5781 47.2381 79.1796 45 77.8347C42.7619 76.4898 40.8571 75.643 40.9047 74.4475C40.9047 73.2022 43.0952 72.9034 43.1428 74.6467Z" fill="#951513"/>
<path d="M58.5238 64.286C59.9523 67.2747 56.7142 72.9532 49.1904 71.1102C46.4761 70.4626 45.4761 67.8724 45.5238 66.5773C45.1904 67.3245 44.9523 68.1713 44.9047 69.0181C44.8095 72.4551 49.4285 73.3517 51.9047 73.3517C55.9523 73.3019 59.4285 71.9071 59.6666 67.972C59.7619 66.4777 59.3333 65.2324 58.5238 64.286Z" fill="#B30000"/>
<path d="M57.0952 64.1366C57.0476 64.286 56.8095 64.286 56.5238 64.1366C56.238 63.9871 56.0476 63.6883 56.0952 63.5388C56.1428 63.3894 56.3809 63.3894 56.6666 63.5388C56.9523 63.6883 57.1428 63.9871 57.0952 64.1366Z" fill="white"/>
<path d="M48.1428 63.9373C48.1428 63.9373 51.619 62.0943 55.2381 63.5388C56.4762 64.0867 53.6666 60.6498 48.1428 63.9373Z" fill="white"/>
<g opacity="0.5">
<path opacity="0.5" d="M93.333 56.4656C94.1425 55.6188 94.3806 53.8754 93.6664 52.7795C93.2378 53.8754 92.4759 54.6226 91.333 54.0746C93.8568 56.9139 90.9044 61.0482 87.5235 57.9599C89.2854 66.1788 78.4759 66.0792 79.8568 60.9486C76.2378 64.3856 74.714 61.3969 75.6187 60.052C70.4759 58.9063 71.2378 54.5728 74.0949 52.1818C65.9997 54.5728 65.5711 48.8444 66.6664 44.4112C61.8568 47.8482 57.1425 45.4573 56.3806 42.2195C54.0949 47.2505 50.3806 46.8022 48.714 43.3652C47.1902 48.6452 43.0473 47.2505 40.9521 45.6565C41.6187 48.8444 41.714 51.5841 39.0949 52.6301C36.4759 53.6761 35.4759 50.6875 35.4759 50.6875C35.4759 50.6875 35.9045 54.6724 38.333 54.8218C38.2378 55.9675 36.9997 61.7954 33.2854 61.3471C35.5711 67.5237 28.3806 70.8112 26.3807 67.4241C26.1426 71.5584 20.5711 70.2633 22.333 67.7728C14.6187 69.2173 13.4759 64.2361 13.5711 60.7992C11.0949 66.2286 17.1426 71.7577 20.1426 70.612C18.3807 72.9531 21.6187 76.3901 23.7616 75.4935C23.0949 79.9765 28.0473 81.0724 29.5235 80.1758C29.9045 81.2716 32.6187 82.6165 33.9045 80.7735C35.2854 82.4173 36.9997 81.0724 36.9997 81.0724C36.9997 81.0724 30.0473 75.6928 31.8568 70.0641C33.0949 66.5773 35.8568 67.972 36.714 64.6346C37.5711 61.2973 37.8568 57.3622 40.3806 53.6263C42.1426 53.4769 42.0949 50.0399 42.0949 48.2965C44.9045 50.6377 48.0949 48.1471 48.6664 46.7026C50.7616 49.8905 54.9045 48.8444 56.714 44.7101C58.0473 47.2505 61.8092 49.5418 65.2854 46.7524C64.1425 49.9901 65.333 53.6263 69.8568 54.3735C69.8568 56.366 71.0949 58.6573 72.4759 60.1018C73.8568 61.5463 76.714 64.1365 74.4283 69.6158C72.1902 75.095 69.4759 77.8346 69.4759 77.8346C69.4759 77.8346 69.3806 80.5743 71.6664 80.1758C73.9044 79.7773 73.7616 77.8346 73.7616 77.8346C73.7616 77.8346 75.9521 79.2792 77.9044 78.5818C79.8568 77.8844 80.4283 75.7426 80.4283 75.7426C82.4759 76.5395 85.0949 75.2444 84.6187 72.8037C90.5711 73.7003 93.8568 67.4241 91.9044 64.7841C95.0949 64.286 96.2378 57.8603 93.333 56.4656Z" fill="#DB6505"/>
</g>
<path d="M29.9047 73.7003C29.0476 76.689 25.0476 76.5395 25.0476 73.4512C23.4285 74.5969 20.8095 73.2022 20.7142 69.815C20.3809 70.2135 19.9523 70.5124 19.4285 70.7116C19.6666 70.7116 19.9047 70.6618 20.1428 70.5622C18.3809 72.9033 21.619 76.3403 23.7619 75.4437C23.0952 79.9267 28.0476 81.0225 29.5238 80.1259C29.9047 81.2218 32.619 82.5667 33.9047 80.7237C35.2857 82.3674 37 81.0225 37 81.0225C37 81.0225 34.5238 79.1297 32.9047 76.3901C31.3333 76.2905 30.238 74.9954 29.9047 73.7003Z" fill="#DB6505"/>
<path d="M89.3809 63.8377C90.1428 68.9184 83.2857 70.5622 82.1905 68.3705C81.3333 71.7577 79.3333 69.018 79.3333 69.018C79.3333 69.018 78.4762 73.4512 75.619 73.3018C72.9524 73.2022 74.1905 70.1139 74.3333 69.6656C72.0952 75.095 69.3809 77.8346 69.3809 77.8346C69.3809 77.8346 69.2857 80.5743 71.5714 80.1758C73.8095 79.7773 73.6666 77.8346 73.6666 77.8346C73.6666 77.8346 75.8571 79.2792 77.8095 78.5818C79.7619 77.8844 80.3333 75.7426 80.3333 75.7426C82.3809 76.5395 85 75.2444 84.5238 72.8037C90.4762 73.7003 93.7619 67.4241 91.8095 64.7841C92.9524 64.5848 93.8571 63.6384 94.3809 62.3931C92.7143 64.0369 90.1905 64.3358 89.3809 63.8377Z" fill="#DB6505"/>
<path d="M51.5715 43.9629C50.9524 43.9629 50.381 43.8135 49.9524 43.3154C49.3334 42.5682 49.2858 41.6218 49.2858 40.6754C49.2858 40.6256 49.2858 40.6256 49.2381 40.6256V40.5757C49.2858 40.3267 48.9524 40.6256 48.9524 40.7252C48.3334 42.8172 46.9048 44.6603 45 45.6565C43.1429 46.6527 41 45.2082 40.1905 43.415C40.1429 43.2656 39.8096 43.6142 39.8572 43.7139C40.8096 45.9055 43.0953 46.9516 45.1429 45.8557C46.8096 44.9591 48.1429 43.2157 48.9048 41.4225C48.9524 42.1697 49.0953 42.9169 49.5239 43.5644C49.9524 44.212 50.5715 44.3614 51.2858 44.3614C51.4762 44.3116 51.6667 43.9629 51.5715 43.9629Z" fill="#FFB300"/>
<path d="M69.9048 40.9244C68.1905 41.5222 67 43.415 66.5238 45.2082C66.2857 46.1546 66.5238 47.3999 66.8571 48.2965C67.2381 49.2429 67.9047 49.5418 68.8095 49.8406C68.9047 49.8905 69.1905 49.5418 69.0476 49.492C67.6667 48.9939 67.0952 48.2467 66.8571 46.7523C66.4762 44.6603 67.8095 42.0203 69.7619 41.3229C69.8095 41.2233 70.0476 40.8248 69.9048 40.9244Z" fill="#FFB300"/>
<path d="M37.8095 27.6746C36.4762 27.9237 35.5238 30.0656 35.3809 31.6595C35.0476 31.261 34.619 31.012 34.2381 30.7131C33.4286 30.1652 32.4762 30.215 31.5714 30.5139C30.3333 30.9124 29 32.1576 29.5238 33.6022C29.5714 33.7516 29.9048 33.4029 29.8571 33.3033C29 31.1116 32.3333 30.3146 33.6667 30.9124C34.3333 31.2112 35.2857 31.9584 35.4286 32.7554C35.4762 32.9048 35.7619 32.5561 35.7619 32.4565C35.619 31.9086 35.8095 30.9124 35.9524 30.4142C36.0952 29.7169 36.8571 28.2225 37.6667 28.0731C37.7619 28.0233 38 27.6746 37.8095 27.6746Z" fill="#FFB300"/>
<path d="M28.2381 37.6369C26.381 36.8897 24.2381 37.2384 22.7619 38.6829C21.381 40.0278 21.5238 42.1697 22.2857 43.8135C22.3333 43.9629 22.6667 43.6143 22.6191 43.5146C21.7619 41.6218 21.7619 39.3803 23.8095 38.1848C25.0952 37.4377 26.7143 37.4377 28.0476 37.9856C28.1429 38.0354 28.381 37.6867 28.2381 37.6369Z" fill="#FFB300"/>
<path d="M64.5714 22.9426C63.3333 22.4943 61.9524 22.8429 60.8571 23.5901C59.8571 24.2875 59.5714 25.1343 59 26.1305C58.5238 25.3335 57.9048 24.7358 57.381 23.9886C57.0476 23.5403 56.4762 22.7433 55.8571 22.8429C54.4762 22.9924 53.7619 24.138 53.5238 25.4829C53.4762 25.6324 53.8095 25.3833 53.8571 25.2339C54.0476 24.1878 54.9048 22.7931 56.1429 23.341C56.4762 23.4905 56.7143 23.8392 56.9524 24.138C57.619 24.935 58.2857 25.6822 58.8095 26.6286C58.8571 26.7282 59.0476 26.529 59.0476 26.4792C59.6667 25.4331 59.9524 24.4369 61.0476 23.7893C62.0476 23.1916 63.2381 22.9426 64.3333 23.341C64.4286 23.341 64.7143 22.9924 64.5714 22.9426Z" fill="#FFB300"/>
<path d="M80.0952 30.0157C79.5714 29.2686 78.9048 28.621 78.0476 28.2724C77.2381 27.9735 76.2857 28.5214 75.6191 28.9697C75.4762 29.0693 74.9048 29.7169 74.7143 29.5674C74.7619 29.5176 74.5238 28.4716 74.5238 28.5214C74.4286 28.1229 74.2381 27.7244 74.0476 27.3757C73.6191 26.4293 72.9524 25.5825 71.9048 25.4331C71.7619 25.4331 71.5238 25.7818 71.6667 25.7818C72.7143 25.8814 73.2381 26.7282 73.7143 27.6248C74.1429 28.372 74.0476 29.3184 74.4762 30.0656C74.5238 30.1652 74.6191 30.0656 74.6667 30.0157C75.5238 29.169 76.5714 28.372 77.8095 28.621C78.6191 28.7705 79.3333 29.6671 79.8095 30.3146C79.8572 30.464 80.1905 30.1652 80.0952 30.0157Z" fill="#FFB300"/>
<path d="M91.5714 40.8248C89.9047 38.4837 85.1428 38.3342 83.7619 41.0241C83.619 41.2731 83.9524 41.0739 84.0476 40.9742C85.2857 38.5335 89.9524 39.2308 91.2857 41.1735C91.3809 41.2233 91.6667 40.9244 91.5714 40.8248Z" fill="#FFB300"/>
<path d="M85.381 36.0928C85.381 35.9931 85.0477 36.2422 85.0477 36.3916C85.1905 37.2882 85.3334 38.1848 84.8096 38.9818C84.6191 39.2309 84.9048 39.1811 85 39.0316C85.6191 38.135 85.5715 37.1388 85.381 36.0928Z" fill="#FFB300"/>
<path d="M20.9524 44.3116C20.0952 44.4611 19.0952 44.6603 18.6667 45.5071C18.4286 45.9554 18.3333 46.4037 18.4286 46.9516C18.4286 47.0014 18.4762 47.1011 18.4762 47.1509C17.1905 47.3501 16.3333 48.3463 15.8571 49.6414C15.0476 51.9328 16.8571 53.6263 18.7619 54.1743C18.9048 54.2241 19.1429 53.8256 19 53.8256C17.7143 53.4769 16.619 52.7795 16.1429 51.3848C15.5238 49.5418 16.9048 47.5992 18.6667 47.4497C18.8571 47.649 19.0952 47.7984 19.2857 47.9977C19.381 48.0973 19.6667 47.7486 19.5714 47.649C19.381 47.4995 19.2381 47.3501 19.0952 47.2007C19.1429 47.1011 19.1429 47.0512 19.0952 47.0512C19.0476 47.0512 19 47.0512 18.9524 47.0512C18.7619 46.8022 18.619 46.5531 18.6667 46.055C18.7143 44.9592 19.9524 44.8097 20.7619 44.6603C20.9048 44.6603 21.0952 44.2618 20.9524 44.3116Z" fill="#FFB300"/>
<path opacity="0.3" d="M45.4761 74.6966C45.4761 74.6966 47.8571 76.4898 53.3333 75.7924C58.8095 75.0951 54.2857 79.08 49.238 77.8347C44.1904 76.5396 44.1904 73.9494 45.4761 74.6966Z" fill="white"/>
<path opacity="0.3" d="M58.5715 75.0951C58.6667 75.4936 58.2858 75.9419 57.6667 76.1411C57.0477 76.3403 56.4762 76.1411 56.381 75.7426C56.2858 75.3441 56.6667 74.8958 57.2858 74.6966C57.9048 74.4973 58.4762 74.6966 58.5715 75.0951Z" fill="white"/>
</g>
<defs>
<clipPath id="clip0">
<rect width="82" height="66" fill="white" transform="translate(13 21)"/>
</clipPath>
</defs>
</svg>
